# xmcd
#
# Track frame offsets:
#	150
#	14301
#	25874
#	40462
#	54101
#	69365
#	85850
#	102323
#	117167
#	131483
#	148640
#	167157
#
# Disc length: 2464 seconds
#
# Revision: 1
# Processed by: cddbd v1.5.2PL0 Copyright (c) Steve Scherf et al.
# Submitted via: EZCDAudioConverter 2.0.4.1
#
DISCID=98099e0c
DTITLE=Kelly Fitzgerald - Into Christmas
DYEAR=2013
DGENRE=Country
TTITLE0=Blingle Bells
TTITLE1=Let it Snow
TTITLE2=Looks Like This Sleigh is Going Our Way
TTITLE3=Have Yourself a Merry Little Christmas
TTITLE4=Let's Go Out Into Christmas
TTITLE5=The Christmas Song
TTITLE6=All Wrapped Up in Christmas
TTITLE7=Sleigh Ride
TTITLE8=Peace on Earth at Christmastime
TTITLE9=I'll Be Home for Christmas
TTITLE10=You're All Around Us
TTITLE11=Silent Night
EXTD=
EXTT0=
EXTT1=
EXTT2=
EXTT3=
EXTT4=
EXTT5=
EXTT6=
EXTT7=
EXTT8=
EXTT9=
EXTT10=
EXTT11=
PLAYORDER=
